# xmcd
#
# Track frame offsets: 
#        151
#        14308
#        28155
#        41046
#        53615
#        66606
#        79541
#        92787
#        105981
#        118116
#        131423
#        144318
#        157427
#        170178
#        181506
#        192504
#        203952
#        216952
#        227454
#        239884
#        253607
#        266491
#
# Disc length: 3706 seconds
#
# Revision: 1
# Processed by: cddbd v1.5.2PL0 Copyright (c) Steve Scherf et al.
# Submitted via: ExactAudioCopyFreeDBPlugin 1.0
#
DISCID=430e7816
DTITLE=Big Maceo - Big City Blues Vol. 2 (1945-1950)
DYEAR=2003
DGENRE=Blues
TTITLE0=Maceo's 32-20
TTITLE1=Come On Home
TTITLE2=Texas Stomp
TTITLE3=Detroit Jump
TTITLE4=Winter Time Blues
TTITLE5=Won't Be a Fool No More
TTITLE6=Big Road Blues
TTITLE7=Chicago Breakdown
TTITLE8=Broke and Hungry Blues
TTITLE9=If You Ever Change Your Ways
TTITLE10=It's All Over Now
TTITLE11=I Lost My Little Woman
TTITLE12=One Sunday Morning
TTITLE13=Just Tell Me Baby
TTITLE14=Do You Remember?
TTITLE15=Big City Blues
TTITLE16=Leavin' Blues
TTITLE17=Have You Heard About It?
TTITLE18=Worried Life Blues No. 2
TTITLE19=Strange to Me Blues
TTITLE20=Without You My Life Don't Mean a Thing
TTITLE21=Eloise, Don't Play Me for a Fool
EXTD=
EXTT0=
EXTT1=
EXTT2=
EXTT3=
EXTT4=
EXTT5=
EXTT6=
EXTT7=
EXTT8=
EXTT9=
EXTT10=
EXTT11=
EXTT12=
EXTT13=
EXTT14=
EXTT15=
EXTT16=
EXTT17=
EXTT18=
EXTT19=
EXTT20=
EXTT21=
PLAYORDER=
